# xmcd
#
# Track frame offsets: 
#        150
#        33110
#        69272
#        97260
#        124832
#        152312
#        181475
#
# Disc length: 2703 seconds
#
# Revision: 2
# Processed by: cddbd v1.5.2PL0 Copyright (c) Steve Scherf et al.
# Submitted via: ExactAudioCopy v0.95b4
#
DISCID=510a8d07
DTITLE=Tsuyoshi Yamamoto Trio - Misty
DYEAR=1974
DGENRE=Jazz
TTITLE0=MISTY
TTITLE1=BLUES
TTITLE2=YESTERDAYS
TTITLE3=HONEY SUCKLE ROSE
TTITLE4=SMOKE GETS IN YOUR EYES
TTITLE5=I DIDN'T KNOW WHAT TIME IT WAS
TTITLE6=ANGEL EYES
EXTD=YEAR: 1974
EXTT0=
EXTT1=
EXTT2=
EXTT3=
EXTT4=
EXTT5=
EXTT6=
PLAYORDER=
